<?xml version="1.0" encoding="UTF-8"?><svg xmlns="http://www.w3.org/2000/svg" xmlns:xlink="http://www.w3.org/1999/xlink" viewBox="0 0 99.229 103.707"><defs><style>.cls-1{fill:url(#radial-gradient);mix-blend-mode:multiply;opacity:.8;}.cls-2{fill:#031519;}.cls-3{fill:#dbdbdb;}.cls-4{isolation:isolate;}</style><radialGradient id="radial-gradient" cx="49.614" cy="54.093" fx="49.614" fy="54.093" r="49.614" gradientUnits="userSpaceOnUse"><stop offset="0" stop-color="#00004f"/><stop offset=".342" stop-color="#666696" stop-opacity=".596"/><stop offset=".769" stop-color="#d5d5e2" stop-opacity=".164"/><stop offset="1" stop-color="#fff" stop-opacity="0"/></radialGradient></defs><g class="cls-4"><g id="Layer_1"><g><circle class="cls-1" cx="49.614" cy="54.093" r="49.614"/><circle class="cls-3" cx="36.259" cy="34.544" r="34.544"/><path class="cls-2" d="M54.754,29.521c0-4.581-3.714-8.295-8.295-8.295H25.247c-4.581,0-8.295,3.714-8.295,8.295v9.871c0,4.581,3.714,8.295,8.295,8.295h21.211c4.581,0,8.295-3.714,8.295-8.295v-9.871Zm-12.474,5.675l-9.512,4.706c-.373,.202-1.64-.068-1.64-.492v-9.659c0-.43,1.277-.699,1.651-.486l9.105,4.954c.382,.217,.782,.77,.396,.979Z"/></g></g></g></svg>